<svg xmlns="http://www.w3.org/2000/svg" fill="currentColor" class="size-full"
    shape-rendering="crispEdges" viewBox="0 0 460 460">
    <path
        d="M269 19h2v1h-2zM269 20h2v1h-2zM269 21h2v1h-2zM271 22h5v1h-5zM271 23h5v1h-5zM198 24h50v1h-50zM274 24h8v1h-8zM198 25h50v1h-50zM274 25h8v1h-8zM198 26h50v1h-50zM274 26h8v1h-8zM203 27h17v1h-17zM220 27h1v1h-1zM221 27h34v1h-34zM274 27h10v1h-10zM203 28h52v1h-52zM274 28h10v1h-10zM203 29h60v1h-60zM276 29h7v1h-7zM283 29h1v1h-1zM203 30h60v1h-60zM276 30h8v1h-8zM203 31h60v1h-60zM276 31h8v1h-8zM184 32h85v1h-85zM276 32h11v1h-11zM184 33h85v1h-85zM276 33h11v1h-11zM184 34h85v1h-85zM276 34h11v1h-11zM174 35h84v1h-84zM258 35h3v1h-3zM261 35h13v1h-13zM279 35h8v1h-8zM174 36h84v1h-84zM258 36h3v1h-3zM261 36h13v1h-13zM279 36h8v1h-8zM166 37h124v1H166zM166 38h124v1H166zM166 39h124v1H166zM156 40h28v1h-28zM184 40h3v1h-3zM187 40h103v1H187zM156 41h28v1h-28zM184 41h3v1h-3zM187 41h103v1H187zM156 42h28v1h-28zM184 42h3v1h-3zM187 42h103v1H187zM153 43h86v1h-86zM239 43h1v1h-1zM240 43h50v1h-50zM295 43h24v1h-24zM153 44h137v1H153zM295 44h24v1h-24zM148 45h176v1H148zM148 46h136v1H148zM284 46h1v1h-1zM285 46h39v1h-39zM148 47h176v1H148zM142 48h3v1h-3zM145 48h3v1h-3zM148 48h66v1h-66zM214 48h1v1h-1zM215 48h75v1h-75zM290 48h2v1h-2zM292 48h40v1h-40zM142 49h3v1h-3zM145 49h3v1h-3zM148 49h142v1H148zM290 49h2v1h-2zM292 49h40v1h-40zM137 50h34v1h-34zM171 50h3v1h-3zM174 50h160v1H174zM137 51h34v1h-34zM171 51h3v1h-3zM174 51h157v1H174zM331 51h1v1h-1zM332 51h2v1h-2zM137 52h34v1h-34zM171 52h3v1h-3zM174 52h160v1H174zM132 53h187v1H132zM132 54h187v1H132zM132 55h91v1h-91zM223 55h1v1h-1zM224 55h95v1h-95zM127 56h92v1h-92zM219 56h2v1h-2zM221 56h108v1H221zM127 57h92v1h-92zM219 57h2v1h-2zM221 57h108v1H221zM124 58h210v1H124zM124 59h210v1H124zM124 60h210v1H124zM119 61h81v1h-81zM200 61h3v1h-3zM203 61h137v1H203zM119 62h81v1h-81zM200 62h3v1h-3zM203 62h137v1H203zM119 63h81v1h-81zM200 63h3v1h-3zM203 63h127v1H203zM330 63h1v1h-1zM331 63h9v1h-9zM116 64h226v1H116zM116 65h226v1H116zM111 66h121v1H111zM232 66h1v1h-1zM233 66h57v1h-57zM290 66h1v1h-1zM291 66h54v1h-54zM111 67h151v1H111zM262 67h1v1h-1zM263 67h54v1h-54zM317 67h1v1h-1zM318 67h27v1h-27zM111 68h234v1H111zM106 69h241v1H106zM106 70h47v1h-47zM153 70h1v1h-1zM154 70h193v1H154zM100 71h11v1h-11zM111 71h3v1h-3zM114 71h102v1H114zM216 71h3v1h-3zM219 71h134v1H219zM100 72h11v1h-11zM111 72h3v1h-3zM114 72h102v1H114zM216 72h3v1h-3zM219 72h134v1H219zM100 73h11v1h-11zM111 73h3v1h-3zM114 73h102v1H114zM216 73h3v1h-3zM219 73h134v1H219zM92 74h19v1H92zM114 74h162v1H114zM276 74h3v1h-3zM279 74h76v1h-76zM92 75h19v1H92zM114 75h162v1H114zM276 75h3v1h-3zM279 75h76v1h-76zM92 76h19v1H92zM114 76h162v1H114zM276 76h3v1h-3zM279 76h76v1h-76zM87 77h21v1H87zM114 77h7v1h-7zM124 77h63v1h-63zM187 77h3v1h-3zM190 77h168v1H190zM87 78h21v1H87zM114 78h7v1h-7zM124 78h63v1h-63zM187 78h3v1h-3zM190 78h168v1H190zM82 79h24v1H82zM111 79h5v1h-5zM121 79h95v1h-95zM216 79h3v1h-3zM219 79h142v1H219zM82 80h24v1H82zM111 80h5v1h-5zM121 80h95v1h-95zM216 80h3v1h-3zM219 80h142v1H219zM82 81h24v1H82zM111 81h5v1h-5zM121 81h95v1h-95zM216 81h3v1h-3zM219 81h142v1H219zM74 82h8v1h-8zM82 82h3v1h-3zM85 82h18v1H85zM108 82h6v1h-6zM121 82h6v1h-6zM129 82h232v1H129zM74 83h8v1h-8zM82 83h3v1h-3zM85 83h18v1H85zM108 83h6v1h-6zM121 83h6v1h-6zM129 83h232v1H129zM74 84h8v1h-8zM82 84h3v1h-3zM85 84h18v1H85zM108 84h6v1h-6zM121 84h6v1h-6zM129 84h86v1h-86zM215 84h1v1h-1zM216 84h145v1H216zM87 85h13v1H87zM106 85h2v1h-2zM119 85h5v1h-5zM127 85h126v1H127zM253 85h2v1h-2zM255 85h108v1H255zM87 86h13v1H87zM106 86h2v1h-2zM119 86h5v1h-5zM127 86h21v1h-21zM148 86h1v1h-1zM149 86h104v1H149zM253 86h2v1h-2zM255 86h108v1H255zM90 87h8v1h-8zM116 87h5v1h-5zM124 87h242v1H124zM90 88h8v1h-8zM116 88h5v1h-5zM124 88h242v1H124zM90 89h8v1h-8zM116 89h5v1h-5zM124 89h242v1H124zM85 90h10v1H85zM114 90h7v1h-7zM124 90h168v1H124zM292 90h3v1h-3zM295 90h73v1h-73zM85 91h10v1H85zM114 91h7v1h-7zM124 91h168v1H124zM292 91h3v1h-3zM295 91h73v1h-73zM82 92h10v1H82zM92 92h3v1h-3zM114 92h81v1h-81zM195 92h3v1h-3zM198 92h11v1h-11zM209 92h1v1h-1zM210 92h13v1h-13zM223 92h1v1h-1zM224 92h147v1H224zM82 93h10v1H82zM92 93h3v1h-3zM114 93h78v1h-78zM192 93h1v1h-1zM193 93h2v1h-2zM195 93h3v1h-3zM198 93h82v1h-82zM280 93h1v1h-1zM281 93h4v1h-4zM285 93h1v1h-1zM286 93h85v1h-85zM82 94h10v1H82zM92 94h3v1h-3zM114 94h81v1h-81zM195 94h3v1h-3zM198 94h173v1H198zM79 95h13v1H79zM111 95h79v1h-79zM190 95h2v1h-2zM192 95h179v1H192zM79 96h13v1H79zM111 96h30v1h-30zM141 96h1v1h-1zM142 96h48v1h-48zM190 96h2v1h-2zM192 96h179v1H192zM79 97h13v1H79zM111 97h79v1h-79zM190 97h2v1h-2zM192 97h51v1h-51zM243 97h1v1h-1zM244 97h127v1H244zM77 98h13v1H77zM111 98h24v1h-24zM135 98h1v1h-1zM136 98h206v1H136zM342 98h3v1h-3zM345 98h29v1h-29zM77 99h13v1H77zM111 99h231v1H111zM342 99h3v1h-3zM345 99h17v1h-17zM362 99h1v1h-1zM363 99h11v1h-11zM74 100h16v1H74zM95 100h3v1h-3zM108 100h176v1H108zM284 100h1v1h-1zM285 100h57v1h-57zM342 100h3v1h-3zM345 100h31v1h-31zM74 101h16v1H74zM95 101h3v1h-3zM108 101h234v1H108zM342 101h3v1h-3zM345 101h31v1h-31zM74 102h16v1H74zM95 102h3v1h-3zM108 102h234v1H108zM342 102h3v1h-3zM345 102h31v1h-31zM71 103h3v1h-3zM74 103h13v1H74zM92 103h6v1h-6zM100 103h102v1H100zM202 103h1v1h-1zM203 103h173v1H203zM71 104h3v1h-3zM74 104h13v1H74zM92 104h6v1h-6zM100 104h276v1H100zM71 105h3v1h-3zM74 105h13v1H74zM92 105h6v1h-6zM100 105h276v1H100zM69 106h18v1H69zM90 106h8v1h-8zM100 106h32v1h-32zM132 106h3v1h-3zM135 106h36v1h-36zM171 106h3v1h-3zM174 106h92v1h-92zM266 106h3v1h-3zM269 106h72v1h-72zM341 106h1v1h-1zM342 106h3v1h-3zM345 106h2v1h-2zM347 106h32v1h-32zM69 107h18v1H69zM90 107h8v1h-8zM100 107h32v1h-32zM132 107h3v1h-3zM135 107h36v1h-36zM171 107h3v1h-3zM174 107h92v1h-92zM266 107h3v1h-3zM269 107h40v1h-40zM309 107h1v1h-1zM310 107h35v1h-35zM345 107h2v1h-2zM347 107h32v1h-32zM66 108h19v1H66zM90 108h81v1H90zM171 108h3v1h-3zM174 108h205v1H174zM66 109h19v1H66zM90 109h81v1H90zM171 109h3v1h-3zM174 109h164v1H174zM338 109h1v1h-1zM339 109h40v1h-40zM66 110h19v1H66zM90 110h81v1H90zM171 110h3v1h-3zM174 110h205v1H174zM66 111h19v1H66zM87 111h124v1H87zM211 111h2v1h-2zM213 111h169v1H213zM66 112h19v1H66zM87 112h124v1H87zM211 112h2v1h-2zM213 112h169v1H213zM66 113h19v1H66zM87 113h124v1H87zM211 113h2v1h-2zM213 113h169v1H213zM64 114h102v1H64zM166 114h3v1h-3zM169 114h176v1H169zM345 114h2v1h-2zM347 114h35v1h-35zM382 114h2v1h-2zM64 115h102v1H64zM166 115h3v1h-3zM169 115h176v1H169zM345 115h2v1h-2zM347 115h35v1h-35zM382 115h2v1h-2zM61 116h55v1H61zM116 116h3v1h-3zM119 116h13v1h-13zM132 116h3v1h-3zM135 116h4v1h-4zM139 116h1v1h-1zM140 116h60v1h-60zM200 116h3v1h-3zM203 116h181v1H203zM61 117h55v1H61zM116 117h3v1h-3zM119 117h13v1h-13zM132 117h3v1h-3zM135 117h65v1h-65zM200 117h3v1h-3zM203 117h23v1h-23zM226 117h1v1h-1zM227 117h115v1H227zM342 117h1v1h-1zM343 117h41v1h-41zM61 118h55v1H61zM116 118h3v1h-3zM119 118h13v1h-13zM132 118h3v1h-3zM135 118h65v1h-65zM200 118h3v1h-3zM203 118h12v1h-12zM215 118h1v1h-1zM216 118h168v1H216zM58 119h329v1H58zM58 120h329v1H58zM58 121h329v1H58zM58 122h329v1H58zM58 123h329v1H58zM56 124h334v1H56zM56 125h334v1H56zM56 126h135v1H56zM191 126h1v1h-1zM192 126h198v1H192zM56 127h334v1H56zM56 128h334v1H56zM56 129h249v1H56zM305 129h3v1h-3zM308 129h7v1h-7zM315 129h1v1h-1zM316 129h28v1h-28zM344 129h1v1h-1zM345 129h45v1h-45zM56 130h249v1H56zM305 130h3v1h-3zM308 130h82v1h-82zM56 131h232v1H56zM288 131h1v1h-1zM289 131h16v1h-16zM305 131h3v1h-3zM308 131h82v1h-82zM53 132h13v1H53zM66 132h3v1h-3zM69 132h60v1H69zM132 132h231v1H132zM363 132h3v1h-3zM366 132h26v1h-26zM53 133h13v1H53zM66 133h3v1h-3zM69 133h60v1H69zM132 133h117v1H132zM249 133h1v1h-1zM250 133h113v1H250zM363 133h3v1h-3zM366 133h26v1h-26zM53 134h13v1H53zM66 134h3v1h-3zM69 134h60v1H69zM132 134h2v1h-2zM134 134h1v1h-1zM135 134h228v1H135zM363 134h3v1h-3zM366 134h26v1h-26zM50 135h79v1H50zM132 135h37v1h-37zM169 135h2v1h-2zM171 135h221v1H171zM50 136h79v1H50zM132 136h37v1h-37zM169 136h2v1h-2zM171 136h221v1H171zM50 137h35v1H50zM85 137h1v1h-1zM86 137h43v1H86zM132 137h18v1h-18zM153 137h42v1h-42zM195 137h3v1h-3zM198 137h149v1H198zM347 137h3v1h-3zM350 137h45v1h-45zM50 138h2v1h-2zM52 138h1v1h-1zM53 138h76v1H53zM132 138h18v1h-18zM153 138h42v1h-42zM195 138h3v1h-3zM198 138h149v1H198zM347 138h3v1h-3zM350 138h45v1h-45zM50 139h79v1H50zM132 139h18v1h-18zM153 139h42v1h-42zM195 139h3v1h-3zM198 139h149v1H198zM347 139h3v1h-3zM350 139h45v1h-45zM50 140h77v1H50zM132 140h18v1h-18zM153 140h242v1H153zM50 141h70v1H50zM120 141h1v1h-1zM121 141h6v1h-6zM132 141h18v1h-18zM153 141h242v1H153zM48 142h13v1H48zM64 142h63v1H64zM132 142h8v1h-8zM140 142h2v1h-2zM142 142h8v1h-8zM156 142h26v1h-26zM184 142h87v1h-87zM271 142h3v1h-3zM274 142h123v1H274zM48 143h13v1H48zM64 143h63v1H64zM132 143h8v1h-8zM140 143h2v1h-2zM142 143h8v1h-8zM156 143h26v1h-26zM184 143h18v1h-18zM202 143h1v1h-1zM203 143h68v1h-68zM271 143h3v1h-3zM274 143h123v1H274zM48 144h13v1H48zM64 144h63v1H64zM132 144h8v1h-8zM140 144h2v1h-2zM142 144h8v1h-8zM156 144h26v1h-26zM184 144h9v1h-9zM193 144h1v1h-1zM194 144h77v1h-77zM271 144h3v1h-3zM274 144h123v1H274zM48 145h8v1h-8zM61 145h66v1H61zM135 145h15v1h-15zM156 145h26v1h-26zM187 145h19v1h-19zM208 145h189v1H208zM48 146h8v1h-8zM61 146h66v1H61zM135 146h15v1h-15zM156 146h26v1h-26zM187 146h19v1h-19zM208 146h189v1H208zM48 147h8v1h-8zM61 147h66v1H61zM135 147h15v1h-15zM156 147h26v1h-26zM187 147h19v1h-19zM208 147h189v1H208zM48 148h8v1h-8zM61 148h66v1H61zM135 148h15v1h-15zM158 148h26v1h-26zM190 148h16v1h-16zM211 148h29v1h-29zM240 148h2v1h-2zM242 148h155v1H242zM48 149h8v1h-8zM61 149h66v1H61zM135 149h15v1h-15zM158 149h26v1h-26zM190 149h16v1h-16zM211 149h29v1h-29zM240 149h2v1h-2zM242 149h155v1H242zM48 150h5v1h-5zM58 150h34v1H58zM92 150h3v1h-3zM95 150h29v1H95zM135 150h18v1h-18zM158 150h26v1h-26zM190 150h18v1h-18zM211 150h184v1H211zM395 150h1v1h-1zM396 150h4v1h-4zM48 151h5v1h-5zM58 151h34v1H58zM92 151h3v1h-3zM95 151h29v1H95zM135 151h18v1h-18zM158 151h26v1h-26zM190 151h18v1h-18zM211 151h189v1H211zM48 152h5v1h-5zM58 152h34v1H58zM92 152h3v1h-3zM95 152h29v1H95zM135 152h18v1h-18zM158 152h26v1h-26zM190 152h18v1h-18zM211 152h189v1H211zM48 153h5v1h-5zM58 153h66v1H58zM137 153h16v1h-16zM161 153h23v1h-23zM192 153h16v1h-16zM213 153h187v1H213zM48 154h5v1h-5zM58 154h66v1H58zM137 154h16v1h-16zM161 154h23v1h-23zM192 154h16v1h-16zM213 154h187v1H213zM48 155h5v1h-5zM58 155h66v1H58zM137 155h16v1h-16zM161 155h23v1h-23zM192 155h16v1h-16zM213 155h187v1H213zM45 156h8v1h-8zM58 156h66v1H58zM137 156h16v1h-16zM163 156h24v1h-24zM192 156h19v1h-19zM216 156h184v1H216zM45 157h8v1h-8zM58 157h66v1H58zM137 157h16v1h-16zM163 157h24v1h-24zM192 157h19v1h-19zM216 157h184v1H216zM45 158h5v1h-5zM58 158h66v1H58zM140 158h13v1h-13zM163 158h24v1h-24zM195 158h16v1h-16zM216 158h74v1h-74zM290 158h1v1h-1zM291 158h109v1H291zM45 159h5v1h-5zM58 159h66v1H58zM140 159h13v1h-13zM163 159h24v1h-24zM195 159h16v1h-16zM216 159h184v1H216zM45 160h5v1h-5zM58 160h66v1H58zM140 160h13v1h-13zM163 160h24v1h-24zM195 160h16v1h-16zM216 160h184v1H216zM45 161h5v1h-5zM58 161h45v1H58zM106 161h18v1h-18zM140 161h13v1h-13zM166 161h21v1h-21zM198 161h13v1h-13zM221 161h182v1H221zM45 162h5v1h-5zM58 162h45v1H58zM106 162h18v1h-18zM140 162h13v1h-13zM166 162h21v1h-21zM198 162h13v1h-13zM221 162h182v1H221zM45 163h3v1h-3zM58 163h45v1H58zM106 163h18v1h-18zM142 163h11v1h-11zM169 163h18v1h-18zM200 163h2v1h-2zM202 163h1v1h-1zM203 163h8v1h-8zM224 163h179v1H224zM45 164h3v1h-3zM58 164h45v1H58zM106 164h18v1h-18zM142 164h11v1h-11zM169 164h18v1h-18zM200 164h11v1h-11zM224 164h111v1H224zM335 164h1v1h-1zM336 164h67v1h-67zM45 165h3v1h-3zM58 165h45v1H58zM106 165h18v1h-18zM142 165h11v1h-11zM169 165h18v1h-18zM200 165h11v1h-11zM224 165h179v1H224zM45 166h3v1h-3zM58 166h45v1H58zM108 166h13v1h-13zM142 166h11v1h-11zM171 166h13v1h-13zM184 166h1v1h-1zM185 166h5v1h-5zM203 166h10v1h-10zM224 166h179v1H224zM45 167h3v1h-3zM58 167h45v1H58zM108 167h13v1h-13zM142 167h11v1h-11zM171 167h19v1h-19zM203 167h10v1h-10zM224 167h4v1h-4zM228 167h1v1h-1zM229 167h174v1H229zM45 168h3v1h-3zM58 168h45v1H58zM108 168h13v1h-13zM142 168h11v1h-11zM171 168h19v1h-19zM203 168h10v1h-10zM224 168h179v1H224zM58 169h42v1H58zM108 169h13v1h-13zM142 169h11v1h-11zM174 169h16v1h-16zM206 169h7v1h-7zM227 169h178v1H227zM58 170h42v1H58zM108 170h13v1h-13zM142 170h11v1h-11zM174 170h16v1h-16zM206 170h7v1h-7zM227 170h33v1h-33zM260 170h1v1h-1zM261 170h67v1h-67zM328 170h1v1h-1zM329 170h76v1h-76zM58 171h42v1H58zM108 171h13v1h-13zM145 171h8v1h-8zM177 171h15v1h-15zM208 171h8v1h-8zM229 171h176v1H229zM58 172h42v1H58zM108 172h13v1h-13zM145 172h8v1h-8zM177 172h15v1h-15zM208 172h8v1h-8zM229 172h176v1H229zM58 173h42v1H58zM108 173h13v1h-13zM145 173h8v1h-8zM177 173h15v1h-15zM208 173h8v1h-8zM229 173h107v1H229zM336 173h1v1h-1zM337 173h68v1h-68zM58 174h42v1H58zM108 174h13v1h-13zM148 174h5v1h-5zM179 174h13v1h-13zM208 174h8v1h-8zM232 174h139v1H232zM371 174h3v1h-3zM374 174h8v1h-8zM382 174h2v1h-2zM384 174h3v1h-3zM387 174h3v1h-3zM390 174h15v1h-15zM58 175h42v1H58zM108 175h13v1h-13zM148 175h5v1h-5zM179 175h13v1h-13zM208 175h8v1h-8zM232 175h60v1h-60zM292 175h1v1h-1zM293 175h78v1h-78zM371 175h3v1h-3zM374 175h8v1h-8zM382 175h2v1h-2zM384 175h3v1h-3zM387 175h3v1h-3zM390 175h15v1h-15zM58 176h42v1H58zM108 176h13v1h-13zM148 176h5v1h-5zM179 176h13v1h-13zM208 176h8v1h-8zM232 176h13v1h-13zM245 176h1v1h-1zM246 176h125v1H246zM371 176h3v1h-3zM374 176h8v1h-8zM382 176h2v1h-2zM384 176h3v1h-3zM387 176h3v1h-3zM390 176h15v1h-15zM58 177h13v1H58zM71 177h3v1h-3zM74 177h26v1H74zM108 177h13v1h-13zM148 177h8v1h-8zM184 177h11v1h-11zM208 177h11v1h-11zM234 177h14v1h-14zM250 177h155v1H250zM58 178h13v1H58zM71 178h3v1h-3zM74 178h26v1H74zM108 178h13v1h-13zM148 178h8v1h-8zM184 178h11v1h-11zM208 178h11v1h-11zM234 178h14v1h-14zM250 178h155v1H250zM58 179h42v1H58zM111 179h10v1h-10zM150 179h6v1h-6zM184 179h40v1h-40zM237 179h11v1h-11zM253 179h152v1H253zM58 180h42v1H58zM111 180h10v1h-10zM150 180h6v1h-6zM184 180h40v1h-40zM237 180h11v1h-11zM253 180h150v1H253zM403 180h1v1h-1zM404 180h1v1h-1zM58 181h42v1H58zM111 181h10v1h-10zM150 181h6v1h-6zM184 181h40v1h-40zM237 181h11v1h-11zM253 181h152v1H253zM58 182h40v1H58zM111 182h10v1h-10zM150 182h6v1h-6zM179 182h50v1h-50zM240 182h8v1h-8zM253 182h21v1h-21zM274 182h1v1h-1zM275 182h130v1H275zM58 183h40v1H58zM111 183h10v1h-10zM150 183h6v1h-6zM179 183h50v1h-50zM240 183h8v1h-8zM253 183h82v1h-82zM335 183h1v1h-1zM336 183h69v1h-69zM58 184h40v1H58zM114 184h7v1h-7zM153 184h5v1h-5zM174 184h24v1h-24zM232 184h2v1h-2zM242 184h8v1h-8zM255 184h150v1H255zM58 185h40v1H58zM114 185h7v1h-7zM153 185h5v1h-5zM174 185h24v1h-24zM232 185h2v1h-2zM242 185h8v1h-8zM255 185h150v1H255zM58 186h21v1H58zM79 186h1v1h-1zM80 186h18v1H80zM114 186h7v1h-7zM153 186h5v1h-5zM174 186h24v1h-24zM232 186h2v1h-2zM242 186h8v1h-8zM255 186h82v1h-82zM337 186h1v1h-1zM338 186h67v1h-67zM58 187h40v1H58zM114 187h7v1h-7zM156 187h2v1h-2zM171 187h13v1h-13zM245 187h5v1h-5zM258 187h74v1h-74zM332 187h2v1h-2zM334 187h48v1h-48zM382 187h5v1h-5zM387 187h18v1h-18zM58 188h40v1H58zM114 188h7v1h-7zM156 188h2v1h-2zM171 188h13v1h-13zM245 188h5v1h-5zM258 188h74v1h-74zM332 188h2v1h-2zM334 188h48v1h-48zM382 188h5v1h-5zM387 188h18v1h-18zM58 189h40v1H58zM114 189h7v1h-7zM156 189h2v1h-2zM171 189h13v1h-13zM245 189h5v1h-5zM258 189h74v1h-74zM332 189h2v1h-2zM334 189h48v1h-48zM382 189h5v1h-5zM387 189h18v1h-18zM58 190h40v1H58zM116 190h5v1h-5zM158 190h3v1h-3zM166 190h11v1h-11zM248 190h5v1h-5zM261 190h63v1h-63zM324 190h2v1h-2zM326 190h66v1h-66zM392 190h3v1h-3zM395 190h2v1h-2zM400 190h5v1h-5zM58 191h40v1H58zM116 191h5v1h-5zM158 191h3v1h-3zM166 191h11v1h-11zM248 191h5v1h-5zM261 191h63v1h-63zM324 191h2v1h-2zM326 191h66v1h-66zM392 191h3v1h-3zM395 191h2v1h-2zM400 191h5v1h-5zM58 192h34v1H58zM95 192h3v1h-3zM116 192h5v1h-5zM158 192h11v1h-11zM250 192h3v1h-3zM263 192h61v1h-61zM324 192h1v1h-1zM325 192h72v1h-72zM400 192h5v1h-5zM58 193h34v1H58zM95 193h3v1h-3zM116 193h5v1h-5zM158 193h6v1h-6zM164 193h1v1h-1zM165 193h4v1h-4zM250 193h3v1h-3zM263 193h134v1H263zM400 193h5v1h-5zM58 194h34v1H58zM95 194h3v1h-3zM116 194h5v1h-5zM158 194h11v1h-11zM250 194h3v1h-3zM263 194h134v1H263zM400 194h5v1h-5zM58 195h34v1H58zM119 195h2v1h-2zM156 195h5v1h-5zM266 195h24v1h-24zM290 195h2v1h-2zM292 195h105v1H292zM403 195h2v1h-2zM58 196h34v1H58zM119 196h2v1h-2zM156 196h5v1h-5zM266 196h4v1h-4zM270 196h1v1h-1zM271 196h19v1h-19zM290 196h2v1h-2zM292 196h105v1H292zM403 196h2v1h-2zM58 197h34v1H58zM119 197h2v1h-2zM156 197h5v1h-5zM266 197h24v1h-24zM290 197h2v1h-2zM292 197h105v1H292zM403 197h2v1h-2zM58 198h32v1H58zM119 198h2v1h-2zM269 198h5v1h-5zM274 198h2v1h-2zM276 198h121v1H276zM403 198h2v1h-2zM58 199h32v1H58zM119 199h2v1h-2zM269 199h5v1h-5zM274 199h2v1h-2zM276 199h121v1H276zM403 199h2v1h-2zM58 200h3v1h-3zM66 200h24v1H66zM98 200h5v1h-5zM271 200h126v1H271zM403 200h2v1h-2zM58 201h3v1h-3zM66 201h24v1H66zM98 201h5v1h-5zM271 201h126v1H271zM403 201h2v1h-2zM58 202h3v1h-3zM66 202h24v1H66zM98 202h5v1h-5zM271 202h126v1H271zM403 202h2v1h-2zM58 203h3v1h-3zM66 203h16v1H66zM82 203h3v1h-3zM85 203h5v1h-5zM95 203h16v1H95zM274 203h123v1H274zM58 204h3v1h-3zM66 204h16v1H66zM82 204h3v1h-3zM85 204h5v1h-5zM95 204h16v1H95zM274 204h123v1H274zM58 205h3v1h-3zM66 205h16v1H66zM82 205h3v1h-3zM85 205h5v1h-5zM95 205h16v1H95zM274 205h3v1h-3zM277 205h1v1h-1zM278 205h119v1H278zM56 206h5v1h-5zM66 206h34v1H66zM108 206h6v1h-6zM276 206h121v1H276zM56 207h5v1h-5zM66 207h34v1H66zM108 207h6v1h-6zM276 207h121v1H276zM56 208h2v1h-2zM66 208h3v1h-3zM69 208h26v1H69zM190 208h18v1h-18zM208 208h1v1h-1zM209 208h2v1h-2zM279 208h118v1H279zM56 209h2v1h-2zM66 209h3v1h-3zM69 209h26v1H69zM190 209h21v1h-21zM279 209h118v1H279zM56 210h2v1h-2zM66 210h3v1h-3zM69 210h26v1H69zM190 210h21v1h-21zM279 210h118v1H279zM69 211h23v1H69zM184 211h35v1h-35zM282 211h1v1h-1zM283 211h1v1h-1zM284 211h37v1h-37zM342 211h3v1h-3zM345 211h2v1h-2zM347 211h35v1h-35zM382 211h1v1h-1zM383 211h14v1h-14zM69 212h23v1H69zM184 212h35v1h-35zM282 212h39v1h-39zM342 212h3v1h-3zM345 212h2v1h-2zM347 212h50v1h-50zM69 213h5v1h-5zM74 213h3v1h-3zM77 213h13v1H77zM179 213h13v1h-13zM216 213h5v1h-5zM282 213h34v1h-34zM345 213h50v1h-50zM69 214h5v1h-5zM74 214h3v1h-3zM77 214h13v1H77zM179 214h13v1h-13zM216 214h5v1h-5zM282 214h34v1h-34zM345 214h50v1h-50zM69 215h5v1h-5zM74 215h3v1h-3zM77 215h13v1H77zM179 215h13v1h-13zM216 215h5v1h-5zM282 215h34v1h-34zM345 215h50v1h-50zM69 216h23v1H69zM179 216h5v1h-5zM187 216h8v1h-8zM221 216h6v1h-6zM282 216h31v1h-31zM347 216h21v1h-21zM368 216h3v1h-3zM371 216h24v1h-24zM69 217h23v1H69zM179 217h5v1h-5zM187 217h8v1h-8zM221 217h6v1h-6zM282 217h31v1h-31zM347 217h21v1h-21zM368 217h3v1h-3zM371 217h24v1h-24zM69 218h23v1H69zM179 218h5v1h-5zM187 218h8v1h-8zM221 218h6v1h-6zM282 218h31v1h-31zM347 218h21v1h-21zM368 218h3v1h-3zM371 218h24v1h-24zM71 219h21v1H71zM187 219h8v1h-8zM224 219h3v1h-3zM282 219h29v1h-29zM350 219h45v1h-45zM71 220h21v1H71zM187 220h8v1h-8zM224 220h3v1h-3zM282 220h29v1h-29zM350 220h45v1h-45zM71 221h6v1h-6zM82 221h10v1H82zM184 221h8v1h-8zM282 221h26v1h-26zM350 221h45v1h-45zM71 222h6v1h-6zM82 222h10v1H82zM184 222h8v1h-8zM282 222h19v1h-19zM301 222h1v1h-1zM302 222h6v1h-6zM350 222h45v1h-45zM71 223h6v1h-6zM82 223h10v1H82zM184 223h8v1h-8zM282 223h26v1h-26zM350 223h45v1h-45zM74 224h3v1h-3zM82 224h13v1H82zM184 224h8v1h-8zM282 224h23v1h-23zM353 224h42v1h-42zM74 225h3v1h-3zM82 225h13v1H82zM184 225h8v1h-8zM282 225h23v1h-23zM353 225h42v1h-42zM74 226h3v1h-3zM82 226h13v1H82zM184 226h8v1h-8zM282 226h23v1h-23zM353 226h42v1h-42zM74 227h3v1h-3zM82 227h13v1H82zM111 227h10v1h-10zM184 227h8v1h-8zM282 227h23v1h-23zM353 227h39v1h-39zM74 228h3v1h-3zM82 228h13v1H82zM111 228h10v1h-10zM184 228h8v1h-8zM282 228h23v1h-23zM353 228h39v1h-39zM74 229h3v1h-3zM85 229h10v1H85zM108 229h11v1h-11zM121 229h6v1h-6zM184 229h11v1h-11zM282 229h21v1h-21zM303 229h2v1h-2zM355 229h37v1h-37zM74 230h3v1h-3zM85 230h10v1H85zM108 230h11v1h-11zM121 230h6v1h-6zM184 230h11v1h-11zM282 230h21v1h-21zM303 230h2v1h-2zM355 230h37v1h-37zM74 231h3v1h-3zM85 231h10v1H85zM108 231h11v1h-11zM121 231h6v1h-6zM184 231h11v1h-11zM282 231h21v1h-21zM303 231h2v1h-2zM355 231h37v1h-37zM85 232h10v1H85zM106 232h5v1h-5zM114 232h5v1h-5zM127 232h2v1h-2zM184 232h14v1h-14zM284 232h19v1h-19zM355 232h37v1h-37zM85 233h10v1H85zM106 233h5v1h-5zM114 233h5v1h-5zM127 233h2v1h-2zM184 233h14v1h-14zM284 233h19v1h-19zM355 233h37v1h-37zM87 234h11v1H87zM106 234h2v1h-2zM114 234h5v1h-5zM184 234h3v1h-3zM190 234h2v1h-2zM284 234h19v1h-19zM355 234h37v1h-37zM87 235h11v1H87zM106 235h2v1h-2zM114 235h5v1h-5zM184 235h3v1h-3zM190 235h2v1h-2zM284 235h19v1h-19zM355 235h37v1h-37zM87 236h11v1H87zM106 236h2v1h-2zM114 236h5v1h-5zM184 236h3v1h-3zM190 236h2v1h-2zM284 236h19v1h-19zM355 236h37v1h-37zM90 237h8v1h-8zM114 237h2v1h-2zM184 237h3v1h-3zM284 237h19v1h-19zM355 237h3v1h-3zM358 237h5v1h-5zM363 237h3v1h-3zM366 237h24v1h-24zM90 238h8v1h-8zM114 238h2v1h-2zM184 238h3v1h-3zM284 238h19v1h-19zM355 238h3v1h-3zM358 238h5v1h-5zM363 238h3v1h-3zM366 238h24v1h-24zM90 239h8v1h-8zM114 239h2v1h-2zM184 239h3v1h-3zM284 239h19v1h-19zM355 239h3v1h-3zM358 239h5v1h-5zM363 239h3v1h-3zM366 239h24v1h-24zM92 240h8v1h-8zM114 240h2v1h-2zM284 240h14v1h-14zM298 240h2v1h-2zM300 240h3v1h-3zM355 240h27v1h-27zM384 240h6v1h-6zM92 241h8v1h-8zM114 241h2v1h-2zM284 241h14v1h-14zM298 241h2v1h-2zM300 241h3v1h-3zM355 241h27v1h-27zM384 241h6v1h-6zM95 242h5v1h-5zM114 242h7v1h-7zM284 242h3v1h-3zM290 242h10v1h-10zM355 242h27v1h-27zM384 242h6v1h-6zM95 243h5v1h-5zM114 243h7v1h-7zM284 243h3v1h-3zM290 243h10v1h-10zM355 243h4v1h-4zM359 243h1v1h-1zM360 243h22v1h-22zM384 243h6v1h-6zM95 244h5v1h-5zM114 244h7v1h-7zM284 244h3v1h-3zM290 244h10v1h-10zM355 244h27v1h-27zM384 244h6v1h-6zM98 245h5v1h-5zM114 245h5v1h-5zM284 245h3v1h-3zM292 245h8v1h-8zM355 245h27v1h-27zM384 245h6v1h-6zM98 246h5v1h-5zM114 246h5v1h-5zM284 246h3v1h-3zM292 246h8v1h-8zM355 246h27v1h-27zM384 246h6v1h-6zM98 247h5v1h-5zM114 247h5v1h-5zM284 247h3v1h-3zM292 247h8v1h-8zM355 247h27v1h-27zM384 247h6v1h-6zM100 248h3v1h-3zM116 248h3v1h-3zM284 248h3v1h-3zM292 248h3v1h-3zM295 248h3v1h-3zM355 248h27v1h-27zM384 248h3v1h-3zM100 249h3v1h-3zM116 249h3v1h-3zM284 249h3v1h-3zM292 249h3v1h-3zM295 249h3v1h-3zM355 249h27v1h-27zM384 249h3v1h-3zM284 250h3v1h-3zM292 250h6v1h-6zM355 250h24v1h-24zM384 250h3v1h-3zM284 251h3v1h-3zM292 251h6v1h-6zM355 251h24v1h-24zM384 251h3v1h-3zM284 252h3v1h-3zM292 252h6v1h-6zM355 252h24v1h-24zM384 252h3v1h-3zM292 253h6v1h-6zM355 253h19v1h-19zM374 253h2v1h-2zM376 253h3v1h-3zM292 254h6v1h-6zM355 254h19v1h-19zM374 254h2v1h-2zM376 254h3v1h-3zM292 255h3v1h-3zM355 255h21v1h-21zM292 256h3v1h-3zM355 256h21v1h-21zM292 257h3v1h-3zM355 257h21v1h-21zM355 258h21v1h-21zM355 259h21v1h-21zM355 260h21v1h-21zM353 261h23v1h-23zM353 262h23v1h-23zM353 263h21v1h-21zM353 264h21v1h-21zM353 265h21v1h-21zM353 266h21v1h-21zM353 267h21v1h-21zM353 268h21v1h-21zM350 269h21v1h-21zM350 270h21v1h-21zM350 271h18v1h-18zM350 272h18v1h-18zM350 273h18v1h-18zM347 274h21v1h-21zM347 275h21v1h-21zM347 276h14v1h-14zM363 276h3v1h-3zM347 277h14v1h-14zM363 277h3v1h-3zM347 278h14v1h-14zM363 278h3v1h-3zM345 279h16v1h-16zM345 280h16v1h-16zM345 281h16v1h-16zM342 282h16v1h-16zM342 283h16v1h-16zM340 284h15v1h-15zM340 285h15v1h-15zM340 286h15v1h-15zM337 287h18v1h-18zM337 288h18v1h-18zM337 289h18v1h-18zM334 290h19v1h-19zM334 291h19v1h-19zM332 292h18v1h-18zM332 293h18v1h-18zM332 294h18v1h-18zM332 295h18v1h-18zM332 296h18v1h-18zM332 297h18v1h-18zM326 298h21v1h-21zM326 299h21v1h-21zM321 300h24v1h-24zM321 301h24v1h-24zM321 302h24v1h-24zM319 303h2v1h-2zM321 303h3v1h-3zM324 303h21v1h-21zM319 304h2v1h-2zM321 304h3v1h-3zM324 304h21v1h-21zM313 305h29v1h-29zM313 306h29v1h-29zM313 307h29v1h-29zM305 308h37v1h-37zM305 309h37v1h-37zM305 310h37v1h-37zM305 311h11v1h-11zM316 311h3v1h-3zM319 311h21v1h-21zM305 312h11v1h-11zM316 312h3v1h-3zM319 312h21v1h-21zM305 313h32v1h-32zM337 313h3v1h-3zM305 314h32v1h-32zM337 314h3v1h-3zM305 315h32v1h-32zM337 315h3v1h-3zM305 316h35v1h-35zM305 317h35v1h-35zM305 318h35v1h-35zM305 319h35v1h-35zM305 320h6v1h-6zM311 320h1v1h-1zM312 320h28v1h-28zM305 321h32v1h-32zM305 322h32v1h-32zM305 323h32v1h-32zM305 324h11v1h-11zM316 324h3v1h-3zM319 324h18v1h-18zM305 325h11v1h-11zM316 325h3v1h-3zM319 325h18v1h-18zM303 326h31v1h-31zM334 326h3v1h-3zM303 327h31v1h-31zM334 327h3v1h-3zM303 328h31v1h-31zM334 328h3v1h-3zM303 329h37v1h-37zM303 330h37v1h-37zM303 331h37v1h-37zM303 332h26v1h-26zM334 332h6v1h-6zM303 333h26v1h-26zM334 333h6v1h-6zM303 334h26v1h-26zM337 334h3v1h-3zM303 335h26v1h-26zM337 335h3v1h-3zM303 336h26v1h-26zM337 336h3v1h-3zM303 337h26v1h-26zM303 338h26v1h-26zM303 339h26v1h-26zM303 340h23v1h-23zM303 341h23v1h-23zM300 342h26v1h-26zM300 343h26v1h-26zM300 344h26v1h-26zM300 345h24v1h-24zM300 346h24v1h-24zM300 347h21v1h-21zM300 348h21v1h-21zM300 349h21v1h-21zM300 350h3v1h-3zM303 350h2v1h-2zM305 350h8v1h-8zM316 350h3v1h-3zM300 351h3v1h-3zM303 351h2v1h-2zM305 351h8v1h-8zM316 351h3v1h-3zM300 352h3v1h-3zM303 352h2v1h-2zM305 352h8v1h-8zM316 352h3v1h-3zM300 353h13v1h-13zM300 354h13v1h-13zM300 355h11v1h-11zM300 356h11v1h-11zM300 357h11v1h-11zM300 358h8v1h-8zM300 359h8v1h-8zM300 360h8v1h-8zM300 361h5v1h-5zM300 362h5v1h-5zM300 363h3v1h-3zM300 364h3v1h-3zM300 365h3v1h-3z" />
</svg>